<svg xmlns="http://www.w3.org/2000/svg" xmlns:xlink="http://www.w3.org/1999/xlink" version="1.1" x="0px" y="0px" viewBox="0 0 100 125" enable-background="new 0 0 100 100" xml:space="preserve"><path d="M81,9.811V7.782H56.554L23.03,5l-0.231,2.782H19v45.78L16,89.71l3,0.249v2.823h34.019l24.769,2.056  l0.171-2.056H81V56.125l3.817-45.997L81,9.811z M24.858,7.159l7.513,0.624h-7.565L24.858,7.159z M18.159,87.882L19,77.744v10.207  L18.159,87.882z M79,11.652v44.389v24.183v10.559h-0.876h-2.008H53.1H28.92H21v-0.657v-2.008V53.646V29.463V9.782h1.633h2.007  h31.831H79V11.652z M81,11.818l1.659,0.138L81,31.945V11.818z"/><path d="M75,37c0,0.552-0.447,1-1,1H39c-0.552,0-1-0.448-1-1l0,0c0-0.552,0.448-1,1-1h35C74.553,36,75,36.448,75,37L75,37z"/><path d="M65,26c0,0.552-0.447,1-1,1H36c-0.552,0-1-0.448-1-1l0,0c0-0.552,0.448-1,1-1h28C64.553,25,65,25.448,65,26L65,26z"/><path d="M29,41c-0.018,0-0.036,0-0.053-0.001c-0.315-0.017-0.604-0.181-0.779-0.444l-2-3c-0.306-0.459-0.182-1.081,0.277-1.387  c0.459-0.308,1.08-0.183,1.387,0.277l1.257,1.886l4.143-4.971c0.353-0.424,0.984-0.481,1.408-0.128  c0.424,0.354,0.481,0.984,0.128,1.408l-5,6C29.578,40.869,29.296,41,29,41z"/><path d="M75,48c0,0.553-0.447,1-1,1H39c-0.552,0-1-0.447-1-1l0,0c0-0.552,0.448-1,1-1h35C74.553,47,75,47.448,75,48L75,48z"/><path d="M68.5,19c0,0.552-0.447,1-1,1h-35c-0.552,0-1-0.448-1-1l0,0c0-0.552,0.448-1,1-1h35C68.053,18,68.5,18.448,68.5,19L68.5,19z  "/><path d="M29,52c-0.018,0-0.036,0-0.053-0.001c-0.315-0.018-0.604-0.182-0.779-0.444l-2-3c-0.306-0.459-0.182-1.081,0.277-1.387  c0.459-0.307,1.08-0.183,1.387,0.277l1.257,1.886l4.143-4.971c0.353-0.424,0.984-0.482,1.408-0.128  c0.424,0.354,0.481,0.984,0.128,1.408l-5,6C29.578,51.869,29.296,52,29,52z"/><path d="M75,59c0,0.553-0.447,1-1,1H39c-0.552,0-1-0.447-1-1l0,0c0-0.553,0.448-1,1-1h35C74.553,58,75,58.447,75,59L75,59z"/><path d="M75,70c0,0.553-0.447,1-1,1H39c-0.552,0-1-0.447-1-1l0,0c0-0.553,0.448-1,1-1h35C74.553,69,75,69.447,75,70L75,70z"/><path d="M29,74c-0.018,0-0.036,0-0.053-0.001c-0.315-0.018-0.604-0.182-0.779-0.444l-2-3c-0.306-0.46-0.182-1.08,0.277-1.387  c0.459-0.306,1.08-0.183,1.387,0.277l1.257,1.886l4.143-4.972c0.353-0.424,0.984-0.481,1.408-0.128s0.481,0.984,0.128,1.409l-5,6  C29.578,73.869,29.296,74,29,74z"/><path d="M75,81c0,0.553-0.447,1-1,1H39c-0.552,0-1-0.447-1-1l0,0c0-0.553,0.448-1,1-1h35C74.553,80,75,80.447,75,81L75,81z"/><path d="M29,85c-0.018,0-0.036,0-0.053-0.001c-0.315-0.018-0.604-0.182-0.779-0.444l-2-3c-0.306-0.46-0.182-1.08,0.277-1.387  c0.459-0.307,1.08-0.182,1.387,0.277l1.257,1.886l4.143-4.972c0.353-0.425,0.984-0.48,1.408-0.128  c0.424,0.354,0.481,0.984,0.128,1.409l-5,6C29.578,84.869,29.296,85,29,85z"/><path d="M31.562,59.5l2.078-1.731c0.424-0.354,0.481-0.984,0.128-1.409c-0.354-0.424-0.984-0.48-1.408-0.128L30,58.198l-2.36-1.967  c-0.424-0.353-1.055-0.296-1.408,0.128c-0.354,0.425-0.296,1.056,0.128,1.409l2.078,1.731l-2.078,1.731  c-0.424,0.354-0.481,0.984-0.128,1.409C26.43,62.878,26.714,63,27,63c0.226,0,0.453-0.076,0.64-0.231L30,60.802l2.36,1.967  C32.547,62.924,32.774,63,33,63c0.287,0,0.571-0.122,0.769-0.359c0.354-0.425,0.296-1.056-0.128-1.409L31.562,59.5z"/><text x="0" y="115" fill="#000000" font-size="5px" font-weight="bold" font-family="'Helvetica Neue', Helvetica, Arial-Unicode, Arial, Sans-serif">Created by Jaime Carrion</text><text x="0" y="120" fill="#000000" font-size="5px" font-weight="bold" font-family="'Helvetica Neue', Helvetica, Arial-Unicode, Arial, Sans-serif">from the Noun Project</text></svg>