<svg xmlns="http://www.w3.org/2000/svg" xmlns:xlink="http://www.w3.org/1999/xlink" version="1.1" x="0px" y="0px" viewBox="0 0 24 30" enable-background="new 0 0 24 24" xml:space="preserve"><g><path d="M0.461,23.939h19.064c0.221,0,0.4-0.179,0.4-0.4V10.996c0-0.221-0.18-0.4-0.4-0.4s-0.4,0.179-0.4,0.4v12.143H0.862V2.868   h15.653c0.221,0,0.4-0.179,0.4-0.4s-0.18-0.4-0.4-0.4H0.461c-0.221,0-0.4,0.179-0.4,0.4v21.071   C0.061,23.76,0.24,23.939,0.461,23.939z"/><path d="M11.875,10.168l-1.419,2.839c-0.077,0.154-0.047,0.34,0.074,0.461c0.077,0.077,0.18,0.117,0.283,0.117   c0.061,0,0.122-0.014,0.179-0.042l2.838-1.418c0.039-0.02,0.073-0.044,0.104-0.075l9.578-9.579c0.368-0.367,0.507-0.848,0.381-1.32   c-0.134-0.5-0.544-0.91-1.044-1.044c-0.473-0.126-0.953,0.011-1.322,0.379l-9.578,9.578C11.919,10.094,11.894,10.129,11.875,10.168   z M12.342,11.023l0.634,0.635l-1.269,0.634L12.342,11.023z M22.094,1.052c0.167-0.167,0.354-0.224,0.548-0.172   c0.223,0.06,0.42,0.257,0.479,0.479c0.053,0.196-0.005,0.38-0.173,0.547l-1.136,1.136l-0.854-0.854L22.094,1.052z M21.245,3.607   l-7.594,7.594l-0.853-0.855l7.594-7.594L21.245,3.607z"/><path d="M14.973,18.476H5.014c-0.221,0-0.4,0.179-0.4,0.4s0.18,0.4,0.4,0.4h9.959c0.221,0,0.4-0.179,0.4-0.4   S15.194,18.476,14.973,18.476z"/><path d="M14.973,15.704H5.014c-0.221,0-0.4,0.179-0.4,0.4s0.18,0.4,0.4,0.4h9.959c0.221,0,0.4-0.179,0.4-0.4   S15.194,15.704,14.973,15.704z"/><path d="M5.014,13.732H9.66c0.221,0,0.4-0.179,0.4-0.4s-0.18-0.4-0.4-0.4H5.014c-0.221,0-0.4,0.179-0.4,0.4   S4.793,13.732,5.014,13.732z"/></g><text x="0" y="39" fill="#000000" font-size="5px" font-weight="bold" font-family="'Helvetica Neue', Helvetica, Arial-Unicode, Arial, Sans-serif">Created by Atif Arshad</text><text x="0" y="44" fill="#000000" font-size="5px" font-weight="bold" font-family="'Helvetica Neue', Helvetica, Arial-Unicode, Arial, Sans-serif">from the Noun Project</text></svg>