<svg xmlns="http://www.w3.org/2000/svg" xmlns:xlink="http://www.w3.org/1999/xlink" xml:space="preserve" version="1.1" style="shape-rendering:geometricPrecision;text-rendering:geometricPrecision;image-rendering:optimizeQuality;" viewBox="0 0 409 511.25" x="0px" y="0px" fill-rule="evenodd" clip-rule="evenodd"><defs><style type="text/css">
   
    .fil0 {fill:black;fill-rule:nonzero}
   
  </style></defs><g><polygon class="fil0" points="352,112 297,57 109,245 94,315 164,300 "/><path class="fil0" d="M311 43l55 55 41 -41c2,-3 2,-7 0,-9l-46 -46c-2,-3 -7,-3 -9,0l-41 41z"/><path class="fil0" d="M339 168c0,-9 7,-17 17,-17 9,0 17,8 17,17l0 182c0,33 -27,59 -60,59l-254 0c-32,0 -59,-26 -59,-59l0 -254c0,-32 27,-59 59,-59l181 0c9,0 17,7 17,17 0,9 -8,17 -17,17l-181 0c-14,0 -25,11 -25,25l0 254c0,14 11,26 25,26l254 0c14,0 26,-12 26,-26l0 -182z"/></g><text x="0" y="424" fill="#000000" font-size="5px" font-weight="bold" font-family="'Helvetica Neue', Helvetica, Arial-Unicode, Arial, Sans-serif">Created by Wilshon Athena</text><text x="0" y="429" fill="#000000" font-size="5px" font-weight="bold" font-family="'Helvetica Neue', Helvetica, Arial-Unicode, Arial, Sans-serif">from the Noun Project</text></svg>