<svg xmlns="http://www.w3.org/2000/svg" data-name="Layer 1" viewBox="0 0 100 125" x="0px" y="0px"><title>10</title><path d="M84.81,17.49H66.68L62.23,8.55a3,3,0,0,0-2.69-1.66H40.45a3,3,0,0,0-2.69,1.66l-4.45,8.94H15.19a3,3,0,0,0,0,6h4.27V81.11a12,12,0,0,0,12,12H68.54a12,12,0,0,0,12-12V23.49h4.27a3,3,0,0,0,0-6Zm-42.5-4.6H57.69L60,17.49H40ZM74.54,81.11a6,6,0,0,1-6,6H31.46a6,6,0,0,1-6-6V23.49H74.54Z"/><path d="M50,81.51a3,3,0,0,0,3-3V32.21a3,3,0,0,0-6,0v46.3A3,3,0,0,0,50,81.51Z"/><path d="M62.77,81.51a3,3,0,0,0,3-3V32.21a3,3,0,0,0-6,0v46.3A3,3,0,0,0,62.77,81.51Z"/><path d="M37.23,81.51a3,3,0,0,0,3-3V32.21a3,3,0,1,0-6,0v46.3A3,3,0,0,0,37.23,81.51Z"/><text x="0" y="115" fill="#000000" font-size="5px" font-weight="bold" font-family="'Helvetica Neue', Helvetica, Arial-Unicode, Arial, Sans-serif">Created by Popular</text><text x="0" y="120" fill="#000000" font-size="5px" font-weight="bold" font-family="'Helvetica Neue', Helvetica, Arial-Unicode, Arial, Sans-serif">from the Noun Project</text></svg>