<svg xmlns="http://www.w3.org/2000/svg" xmlns:xlink="http://www.w3.org/1999/xlink" version="1.1" x="0px" y="0px" viewBox="0 0 512 640" enable-background="new 0 0 512 512" xml:space="preserve"><g><path fill="#000000" d="M498.2,120.4l-1.5-1.9l-0.8,0.6c-3.2-1.5-6.7-2.4-10.5-2.4H108.5c-3.8,0-7.3,0.9-10.5,2.4l-0.8-0.6   l-1.5,1.9c-7,4.3-11.8,12-11.8,20.9v41H59.4v16.4h24.6v41H43V256h41v41H26.6v16.4h57.4v41H2v16.4h81.9c0,8.9,4.8,16.6,11.8,20.9   l1.5,1.9l0.8-0.6c3.2,1.5,6.7,2.4,10.5,2.4h376.9c3.8,0,7.3-0.9,10.5-2.4l0.8,0.6l1.5-1.9c7-4.3,11.8-12,11.8-20.9V141.3   C510,132.4,505.2,124.7,498.2,120.4z M351.1,256l142.6-114V370L351.1,256z M478.4,133.1L297,278.3L115.5,133.1H478.4z M100.3,370   V142l142.6,114L100.3,370z M115.5,378.9L256,266.5l41,32.8l41-32.8l140.5,112.4H115.5z"/><rect x="288.8" y="329.7" fill="#000000" width="16.4" height="16.4"/><rect x="321.5" y="329.7" fill="#000000" width="16.4" height="16.4"/><rect x="256" y="329.7" fill="#000000" width="16.4" height="16.4"/><path fill="#000000" d="M322.3,226.7c5.3-3,9.3-7,11.8-12.2h-8.2c-2.7,3.4-6.3,6-10.7,7.7c-4.4,1.7-9.7,2.6-15.8,2.6   c-6.4,0-12-1-17-3.1c-4.9-2-8.8-5.3-11.5-9.7c-2.7-4.4-4.1-9.4-4.1-14.8c0-5.6,1.2-10.9,3.7-16.1c2.5-5.1,6.1-9.1,10.9-12   c4.8-2.8,10.7-4.3,17.7-4.3c8.2,0,14.6,2.1,19.1,6.4c4.6,4.2,6.9,9.5,6.9,15.9c0,3.5-0.8,6.9-2.4,10.2c-1.6,3.3-3.7,5.9-6.4,7.9   c-2,1.5-3.5,2.2-4.8,2.2c-0.4,0-0.8-0.2-1.1-0.5c-0.3-0.3-0.4-0.8-0.4-1.4c0-0.5,0.2-1.6,0.5-3.4l5.8-27.6h-10.2l-1,4.3   c-2.2-3.5-5.6-5.2-10.1-5.2c-6.4,0-11.7,3-15.8,9.1c-3.4,5-5.1,10.5-5.1,16.5c0,4.9,1.4,8.8,4.2,11.7c2.8,2.9,6.3,4.4,10.6,4.4   c4,0,7.4-1.5,10.5-4.4c0.4,1.4,1.1,2.5,2.2,3.3c1.1,0.7,2.7,1.1,4.8,1.1c7.9,0,14.4-3.3,19.5-10c4-5.3,6-11.2,6-17.8   c0-5.5-1.3-10.6-4-15.2c-2.7-4.6-6.5-8.2-11.5-10.7c-5-2.5-10.8-3.8-17.3-3.8c-7.6,0-14.4,1.6-20.3,4.7c-5.9,3.1-10.6,7.8-14,14   s-5.1,12.9-5.1,20.2c0,6.6,1.5,12.7,4.5,18.2c3,5.6,7.6,9.8,13.8,12.7c6.2,2.9,13.5,4.3,22,4.3   C308.8,231.7,316.2,230.1,322.3,226.7z M301.7,197.7c-1,3-2.2,5.3-3.5,6.9c-0.9,1.1-1.9,1.9-2.9,2.4c-1.3,0.7-2.7,1.1-4.1,1.1   c-2,0-3.6-0.8-4.9-2.3c-1.3-1.5-2-3.9-2-7.2c0-2.4,0.5-5.2,1.4-8.4c1-3.2,2.4-5.6,4.2-7.3c1.9-1.7,3.9-2.6,6.1-2.6   c2.1,0,3.8,0.8,5.1,2.3c1.3,1.6,2,3.8,2,6.7C303.2,191.9,302.7,194.7,301.7,197.7z"/></g></svg>