<svg xmlns="http://www.w3.org/2000/svg" viewBox="0 0 100 125" x="0px" y="0px"><title>•SET10-v2</title><path d="M72.39,92.05H27.61a6,6,0,0,1-6-6V20.17A7.39,7.39,0,0,1,29,12.79h9.51a1.7,1.7,0,0,1,0,3.4H29a4,4,0,0,0-4,4V86a2.61,2.61,0,0,0,2.61,2.61H72.39A2.61,2.61,0,0,0,75,86V20.17a4,4,0,0,0-4-4H61.29a1.7,1.7,0,1,1,0-3.4H71a7.39,7.39,0,0,1,7.38,7.38V86A6,6,0,0,1,72.39,92.05Z"/><path d="M66.92,31.4h-34a5.2,5.2,0,0,1-5.19-5.19V24.74a5.2,5.2,0,0,1,5.19-5.19h1a2.92,2.92,0,0,0,2.89-2.43l1.15-6.59A5.15,5.15,0,0,1,43,6.25H56.44a5.17,5.17,0,0,1,5.09,4.28l1.14,6.59a2.93,2.93,0,0,0,2.89,2.43h1.36a5.19,5.19,0,0,1,5.19,5.19v1.47A5.19,5.19,0,0,1,66.92,31.4ZM32.89,23a1.79,1.79,0,0,0-1.79,1.79v1.47A1.79,1.79,0,0,0,32.89,28h34a1.79,1.79,0,0,0,1.79-1.79V24.74A1.79,1.79,0,0,0,66.92,23H65.56a6.33,6.33,0,0,1-6.24-5.24h0l-1.14-6.6a1.76,1.76,0,0,0-1.74-1.46H43a1.76,1.76,0,0,0-1.74,1.46l-1.15,6.6A6.32,6.32,0,0,1,33.88,23Z"/><rect x="43.76" y="43.17" width="22.29" height="3.4"/><rect x="43.76" y="52.45" width="22.29" height="3.4"/><rect x="43.76" y="61.74" width="22.29" height="3.4"/><rect x="34.43" y="43.17" width="4.79" height="3.4"/><rect x="34.43" y="52.45" width="4.79" height="3.4"/><rect x="34.43" y="61.74" width="4.79" height="3.4"/><path d="M56.39,22.28H42.85a1.7,1.7,0,1,1,0-3.4H56.39a1.7,1.7,0,1,1,0,3.4Z"/></svg>