<svg xmlns="http://www.w3.org/2000/svg" xmlns:xlink="http://www.w3.org/1999/xlink" version="1.1" x="0px" y="0px" viewBox="7.5 7.5 50 62.5" enable-background="new 7.5 7.5 50 50" xml:space="preserve"><path d="M25.082,10.608h5.769c0.276,0,0.5-0.224,0.5-0.5s-0.224-0.5-0.5-0.5h-5.769c-0.276,0-0.5,0.224-0.5,0.5  S24.806,10.608,25.082,10.608z"/><path d="M21.875,10.608h1.839c0.276,0,0.5-0.224,0.5-0.5s-0.224-0.5-0.5-0.5h-1.839c-0.276,0-0.5,0.224-0.5,0.5  S21.599,10.608,21.875,10.608z"/><path d="M38.304,32.82c-0.042,0-0.082,0.006-0.123,0.006V9.888c0-1.107-0.901-2.009-2.01-2.009H16.555  c-1.107,0-2.009,0.901-2.009,2.009v33.573c0,1.108,0.901,2.01,2.009,2.01h9.475c0.052,0,0.099-0.015,0.146-0.029  c0.25,6.481,5.586,11.68,12.128,11.68c6.7,0,12.15-5.45,12.15-12.15S45.004,32.82,38.304,32.82z M19.947,8.879H32.78v1.449  c0,0.556-0.453,1.009-1.01,1.009H20.956c-0.556,0-1.009-0.453-1.009-1.009V8.879z M16.555,44.471c-0.556,0-1.009-0.453-1.009-1.01  V9.888c0-0.556,0.453-1.009,1.009-1.009h2.393v1.449c0,1.107,0.901,2.009,2.009,2.009h10.814c1.108,0,2.01-0.901,2.01-2.009V8.879  h2.391c0.557,0,1.01,0.453,1.01,1.009v22.989c-6.021,0.555-10.77,5.518-11.005,11.623c-0.047-0.015-0.094-0.029-0.146-0.029H16.555z   M38.304,56.121c-6.149,0-11.152-5.002-11.152-11.15s5.003-11.15,11.152-11.15c6.148,0,11.15,5.002,11.15,11.15  S44.452,56.121,38.304,56.121z"/><path d="M44.738,38.62c-0.003-0.058-0.013-0.114-0.034-0.167c-0.001-0.001,0-0.003-0.001-0.004c-0.009-0.02-0.024-0.033-0.035-0.051  c-0.021-0.037-0.041-0.075-0.072-0.106c-0.033-0.033-0.074-0.057-0.116-0.079c-0.015-0.008-0.025-0.021-0.041-0.028  c-0.001-0.001-0.002,0-0.003-0.001c-0.047-0.02-0.097-0.025-0.146-0.03c-0.016-0.002-0.03-0.009-0.046-0.009  s-0.03,0.007-0.046,0.009c-0.05,0.005-0.1,0.011-0.146,0.03c-0.001,0.001-0.003,0-0.004,0.001l-13.947,5.91  c-0.011,0.005-0.018,0.015-0.029,0.02c-0.035,0.019-0.066,0.04-0.096,0.065c-0.022,0.019-0.042,0.037-0.06,0.059  c-0.021,0.025-0.037,0.052-0.053,0.081c-0.017,0.03-0.03,0.061-0.04,0.094c-0.004,0.014-0.014,0.024-0.017,0.039  c-0.003,0.017,0.001,0.032,0,0.049c-0.004,0.034-0.004,0.067,0,0.103c0.003,0.033,0.01,0.065,0.02,0.097  c0.005,0.017,0.003,0.033,0.01,0.05c0.004,0.01,0.015,0.014,0.02,0.023c0.039,0.077,0.091,0.146,0.165,0.196  c0.008,0.005,0.017,0.006,0.025,0.011c0.046,0.026,0.094,0.052,0.149,0.063l6.323,1.327l1.325,6.321  c0.004,0.017,0.013,0.029,0.018,0.045c0.009,0.025,0.018,0.049,0.029,0.073c0.017,0.032,0.036,0.062,0.059,0.089  c0.016,0.02,0.029,0.037,0.048,0.054c0.031,0.029,0.067,0.053,0.105,0.072c0.013,0.007,0.021,0.019,0.035,0.024  c0.004,0.002,0.008,0.001,0.012,0.003c0.058,0.022,0.118,0.037,0.183,0.037c0,0,0,0,0.001,0l0,0c0,0,0,0,0.001,0  c0.033,0,0.068-0.003,0.102-0.011c0.055-0.012,0.103-0.037,0.148-0.063c0.009-0.005,0.018-0.006,0.025-0.012  c0.074-0.049,0.127-0.118,0.165-0.196c0.005-0.01,0.015-0.013,0.019-0.022l5.912-13.945c0-0.001,0-0.002,0.001-0.003  c0.021-0.054,0.031-0.11,0.034-0.169c0.001-0.008,0.005-0.016,0.005-0.023S44.738,38.629,44.738,38.62z M38.493,50.928l-1.01-4.816  l2.624-2.625c0.195-0.195,0.195-0.512,0-0.707s-0.512-0.195-0.707,0l-2.624,2.625l-4.818-1.012l11.342-4.806L38.493,50.928z"/></svg>