<svg xmlns="http://www.w3.org/2000/svg" xmlns:xlink="http://www.w3.org/1999/xlink" version="1.1" x="0px" y="0px" viewBox="0 0 64 80" enable-background="new 0 0 64 64" xml:space="preserve"><g display="none"><rect x="-324.076" y="-324.113" display="inline" fill="#000000" width="824.576" height="414.113"/></g><g display="none"><circle display="inline" fill="#000000" cx="32" cy="32.042" r="32"/><polyline display="inline" fill="#000000" points="50.701,51.212 50.701,11.099 16.724,11.099 16.724,56.403 45.51,56.403    45.51,56.403 50.701,51.212  "/><polygon display="inline" fill="#000000" points="43.806,54.703 15,54.703 15,9.37 49,9.37 49,49.509  "/><path display="inline" fill="#000000" d="M23.154,34.104c-1.672,0-3.028,1.356-3.028,3.028c0,1.672,1.356,3.028,3.028,3.028   c1.672,0,3.028-1.356,3.028-3.028h-3.028V34.104z"/><path display="inline" fill="#000000" stroke="#FFFFFF" stroke-width="0.3" stroke-miterlimit="10" d="M23.477,33.781v3.028h3.028   C26.506,35.136,25.15,33.781,23.477,33.781z"/><path display="inline" fill="#000000" d="M23.154,41.979c-1.672,0-3.028,1.356-3.028,3.028c0,1.672,1.356,3.028,3.028,3.028   c1.672,0,3.028-1.356,3.028-3.028h-3.028V41.979z"/><path display="inline" fill="#000000" stroke="#FFFFFF" stroke-width="0.3" stroke-miterlimit="10" d="M23.477,41.655v3.028h3.028   C26.506,43.011,25.15,41.655,23.477,41.655z"/><line display="inline" fill="#000000" stroke="#E0E0E0" stroke-miterlimit="10" x1="29.079" y1="35.876" x2="43.874" y2="35.876"/><line display="inline" fill="#000000" stroke="#E0E0E0" stroke-miterlimit="10" x1="29.079" y1="38.361" x2="43.874" y2="38.361"/><line display="inline" fill="#000000" stroke="#E0E0E0" stroke-miterlimit="10" x1="29.079" y1="43.462" x2="43.874" y2="43.462"/><line display="inline" fill="#000000" stroke="#E0E0E0" stroke-miterlimit="10" x1="29.079" y1="45.947" x2="43.874" y2="45.947"/><line display="inline" fill="#000000" stroke="#DB2B42" stroke-miterlimit="10" x1="35.326" y1="26.775" x2="35.326" y2="29.054"/><line display="inline" fill="#000000" stroke="#8AD5DD" stroke-miterlimit="10" x1="37.326" y1="20.482" x2="37.326" y2="28.054"/><line display="inline" fill="#000000" stroke="#DB2B42" stroke-miterlimit="10" x1="39.326" y1="16.635" x2="39.326" y2="28.054"/><line display="inline" fill="#000000" stroke="#8AD5DD" stroke-miterlimit="10" x1="41.325" y1="20.241" x2="41.325" y2="28.054"/><line display="inline" fill="#000000" stroke="#DB2B42" stroke-miterlimit="10" x1="43.325" y1="23.918" x2="43.325" y2="28.054"/><circle display="inline" fill="#000000" cx="25.478" cy="19.275" r="2.641"/><path display="inline" fill="#000000" d="M25.353,28.054l-2.551-5.531c0,0-2.676,0.036-2.676,2.498s0,3.033,0,3.033   S25.371,28.054,25.353,28.054z"/><path display="inline" fill="#000000" d="M25.603,28.054l2.551-5.531c0,0,2.676,0.036,2.676,2.498s0,3.033,0,3.033   S25.585,28.054,25.603,28.054z"/><polygon display="inline" fill="#000000" points="25.478,22.794 23.886,22.794 25.478,26.319 27.071,22.794  "/><polygon display="inline" fill="#000000" points="43.806,54.703 43.806,49.509 49,49.509  "/></g><g display="none"><circle display="inline" fill="#000000" cx="32" cy="32.042" r="32"/><polyline display="inline" points="50.701,51.212 50.701,11.099 16.724,11.099 16.724,56.403 45.51,56.403 45.51,56.403    50.701,51.212  "/><polygon display="inline" fill="#000000" points="43.806,54.703 15,54.703 15,9.37 49,9.37 49,49.509  "/><path display="inline" fill="#000000" d="M23.154,34.104c-1.672,0-3.028,1.356-3.028,3.028c0,1.672,1.356,3.028,3.028,3.028   c1.672,0,3.028-1.356,3.028-3.028h-3.028V34.104z"/><path display="inline" stroke="#FFFFFF" stroke-width="0.3" stroke-miterlimit="10" d="M23.477,33.781v3.028h3.028   C26.506,35.136,25.15,33.781,23.477,33.781z" fill="#000000"/><path display="inline" fill="#000000" d="M23.154,41.979c-1.672,0-3.028,1.356-3.028,3.028c0,1.672,1.356,3.028,3.028,3.028   c1.672,0,3.028-1.356,3.028-3.028h-3.028V41.979z"/><path display="inline" stroke="#FFFFFF" stroke-width="0.3" stroke-miterlimit="10" d="M23.477,41.655v3.028h3.028   C26.506,43.011,25.15,41.655,23.477,41.655z" fill="#000000"/><line display="inline" fill="#000000" stroke="#E0E0E0" stroke-miterlimit="10" x1="29.079" y1="35.876" x2="43.874" y2="35.876"/><line display="inline" fill="#000000" stroke="#E0E0E0" stroke-miterlimit="10" x1="29.079" y1="38.361" x2="43.874" y2="38.361"/><line display="inline" fill="#000000" stroke="#E0E0E0" stroke-miterlimit="10" x1="29.079" y1="43.462" x2="43.874" y2="43.462"/><line display="inline" fill="#000000" stroke="#E0E0E0" stroke-miterlimit="10" x1="29.079" y1="45.947" x2="43.874" y2="45.947"/><line display="inline" fill="none" stroke="#000000" stroke-miterlimit="10" x1="35.326" y1="26.775" x2="35.326" y2="29.054"/><line display="inline" fill="#000000" stroke="#8AD5DD" stroke-miterlimit="10" x1="37.326" y1="20.482" x2="37.326" y2="28.054"/><line display="inline" fill="none" stroke="#000000" stroke-miterlimit="10" x1="39.326" y1="16.635" x2="39.326" y2="28.054"/><line display="inline" fill="#000000" stroke="#8AD5DD" stroke-miterlimit="10" x1="41.325" y1="20.241" x2="41.325" y2="28.054"/><line display="inline" fill="none" stroke="#000000" stroke-miterlimit="10" x1="43.325" y1="23.918" x2="43.325" y2="28.054"/><circle display="inline" cx="25.478" cy="19.275" r="2.641"/><path display="inline" d="M25.353,28.054l-2.551-5.531c0,0-2.676,0.036-2.676,2.498s0,3.033,0,3.033S25.371,28.054,25.353,28.054z"/><path display="inline" d="M25.603,28.054l2.551-5.531c0,0,2.676,0.036,2.676,2.498s0,3.033,0,3.033S25.585,28.054,25.603,28.054z"/><polygon display="inline" fill="#000000" points="25.478,22.794 23.886,22.794 25.478,26.319 27.071,22.794  "/><polygon display="inline" fill="#000000" points="43.806,54.703 43.806,49.509 49,49.509  "/></g><g display="none"><polygon display="inline" fill="#000000" points="37.043,63.995 -3.624,63.995 -3.624,-0.005 44.376,-0.005 44.376,56.661  "/><path display="inline" fill="#000000" d="M7.888,34.914c-2.361,0-4.275,1.914-4.275,4.275c0,2.361,1.914,4.275,4.275,4.275   s4.275-1.914,4.275-4.275H7.888V34.914z"/><path display="inline" d="M8.556,34.674v3.845h3.845C12.295,36.447,10.628,34.781,8.556,34.674z"/><path display="inline" fill="#000000" d="M7.888,46.031c-2.361,0-4.275,1.914-4.275,4.275c0,2.361,1.914,4.275,4.275,4.275   s4.275-1.914,4.275-4.275H7.888V46.031z"/><path display="inline" d="M8.556,45.792v3.845h3.845C12.295,47.565,10.628,45.898,8.556,45.792z"/><rect x="16.253" y="36.709" display="inline" fill="#000000" width="20.887" height="1.412"/><rect x="16.253" y="40.217" display="inline" fill="#000000" width="20.887" height="1.412"/><rect x="16.253" y="47.419" display="inline" fill="#000000" width="20.887" height="1.412"/><rect x="16.253" y="50.928" display="inline" fill="#000000" width="20.887" height="1.412"/><rect x="24.366" y="21.571" display="inline" fill="#000000" width="1.412" height="3.218"/><rect x="27.189" y="14.098" display="inline" width="1.412" height="10.69"/><rect x="30.012" y="8.668" display="inline" fill="#000000" width="1.412" height="16.121"/><rect x="32.836" y="13.758" display="inline" width="1.412" height="11.031"/><rect x="35.658" y="18.95" display="inline" fill="#000000" width="1.412" height="5.839"/><circle display="inline" cx="11.169" cy="12.396" r="3.728"/><path display="inline" d="M10.993,24.788L7.391,16.98c0,0-3.778,0.05-3.778,3.526s0,4.282,0,4.282S11.018,24.788,10.993,24.788z"/><path display="inline" d="M11.345,24.788l3.602-7.808c0,0,3.778,0.05,3.778,3.526s0,4.282,0,4.282S11.32,24.788,11.345,24.788z"/><polygon display="inline" fill="#000000" points="11.169,17.363 8.921,17.363 11.169,22.34 13.417,17.363  "/><polygon display="inline" fill="#000000" points="37.043,63.995 37.043,56.661 44.376,56.661  "/></g><g display="none"><g display="inline"><polygon points="22.926,35.058 18.396,40.564 16.492,38.712 15.237,40.074 18.543,43.289 24.32,36.269 22.926,35.058   "/></g><g display="inline"><polygon points="22.926,45.768 18.396,51.273 16.492,49.421 15.237,50.784 18.543,53.999 24.32,46.979 22.926,45.768   "/></g><g display="inline"><path d="M47.266,12.068v1.337H34.932v-1.337H47.266 M48.666,10.668H33.532v4.137h15.135V10.668L48.666,10.668z"/></g><g display="inline"><path d="M47.266,24.051v1.337H34.932v-1.337H47.266 M48.666,22.651H33.532v4.137h15.135V22.651L48.666,22.651z"/></g><g display="inline"><path d="M47.266,18.06v1.337H34.932V18.06H47.266 M48.666,16.66H33.532v4.137h15.135V16.66L48.666,16.66z"/></g><line display="inline" fill="none" stroke="#000000" stroke-width="1.4" stroke-miterlimit="10" x1="27.876" y1="37.413" x2="48.763" y2="37.413"/><line display="inline" fill="none" stroke="#000000" stroke-width="1.4" stroke-miterlimit="10" x1="27.876" y1="40.92" x2="48.763" y2="40.92"/><line display="inline" fill="none" stroke="#000000" stroke-width="1.4" stroke-miterlimit="10" x1="27.876" y1="48.122" x2="48.763" y2="48.122"/><line display="inline" fill="none" stroke="#000000" stroke-width="1.4" stroke-miterlimit="10" x1="27.876" y1="51.63" x2="48.763" y2="51.63"/><text transform="matrix(1 0 0 1 14.7942 26.0933)" display="inline" font-family="'MyriadPro-Regular'" font-size="22.0088px">A</text><g display="inline"><path d="M54.6,1.4v54.687L48.087,62.6H9.4V1.4H54.6 M56,0H8v64h40.667L56,56.667V0L56,0z"/></g><polyline display="inline" fill="none" stroke="#000000" stroke-width="1.4" stroke-miterlimit="10" points="48.179,63.512    48.179,56.179 55.512,56.179  "/><line display="inline" fill="none" stroke="#000000" stroke-width="1.4" stroke-miterlimit="10" x1="27.876" y1="37.42" x2="48.764" y2="37.42"/><line display="inline" fill="none" stroke="#000000" stroke-width="1.4" stroke-miterlimit="10" x1="27.876" y1="40.928" x2="48.764" y2="40.928"/><line display="inline" fill="none" stroke="#000000" stroke-width="1.4" stroke-miterlimit="10" x1="27.876" y1="48.13" x2="48.764" y2="48.13"/><line display="inline" fill="none" stroke="#000000" stroke-width="1.4" stroke-miterlimit="10" x1="27.876" y1="51.638" x2="48.764" y2="51.638"/></g><g display="none"><g display="inline"><g><g><path d="M22.251,10.801c1.284,0,2.328,1.044,2.328,2.328s-1.044,2.328-2.328,2.328s-2.328-1.044-2.328-2.328      S20.967,10.801,22.251,10.801 M22.251,9.401c-2.059,0-3.728,1.669-3.728,3.728c0,2.059,1.669,3.728,3.728,3.728      c2.059,0,3.728-1.669,3.728-3.728C25.979,11.07,24.31,9.401,22.251,9.401L22.251,9.401z"/></g><g><path d="M17.637,19.244l2.25,4.878h-3.793V21.24C16.094,19.96,16.921,19.448,17.637,19.244 M18.473,17.714      c0,0-3.778,0.05-3.778,3.526s0,4.282,0,4.282s7.355,0,7.38,0L18.473,17.714L18.473,17.714z M22.075,25.522L22.075,25.522      L22.075,25.522L22.075,25.522z"/></g><g><path d="M26.867,19.24c0.7,0.199,1.541,0.707,1.541,2v2.882h-3.793L26.867,19.24 M26.029,17.714l-3.602,7.808h0h7.38      c0,0,0-0.806,0-4.282S26.029,17.714,26.029,17.714L26.029,17.714z"/></g><g><polygon points="22.251,18.097 20.003,18.097 22.251,23.074 24.499,18.097     "/></g></g><g><g><path d="M41.749,10.801c1.284,0,2.328,1.044,2.328,2.328s-1.044,2.328-2.328,2.328s-2.328-1.044-2.328-2.328      S40.465,10.801,41.749,10.801 M41.749,9.401c-2.059,0-3.728,1.669-3.728,3.728c0,2.059,1.669,3.728,3.728,3.728      c2.059,0,3.728-1.669,3.728-3.728C45.477,11.07,43.808,9.401,41.749,9.401L41.749,9.401z"/></g><g><path d="M37.135,19.244l2.25,4.878h-3.793V21.24C35.592,19.96,36.419,19.448,37.135,19.244 M37.971,17.714      c0,0-3.778,0.05-3.778,3.526s0,4.282,0,4.282s7.355,0,7.38,0L37.971,17.714L37.971,17.714z M41.573,25.522L41.573,25.522      L41.573,25.522L41.573,25.522z"/></g><g><path d="M46.365,19.24c0.7,0.199,1.54,0.707,1.54,2v2.882h-3.793L46.365,19.24 M45.527,17.714l-3.602,7.808h0h7.38      c0,0,0-0.806,0-4.282S45.527,17.714,45.527,17.714L45.527,17.714z"/></g><g><polygon points="41.749,18.097 39.501,18.097 41.749,23.074 43.997,18.097     "/></g></g></g><g display="inline"><g><polygon points="22.926,35.059 18.396,40.564 16.492,38.712 15.236,40.074 18.543,43.29 24.32,36.27 22.926,35.059    "/></g><g><polygon points="22.926,45.769 18.396,51.274 16.492,49.422 15.236,50.784 18.543,54 24.32,46.98 22.926,45.769    "/></g><line fill="none" stroke="#000000" stroke-width="1.4" stroke-miterlimit="10" x1="27.876" y1="37.413" x2="48.764" y2="37.413"/><line fill="none" stroke="#000000" stroke-width="1.4" stroke-miterlimit="10" x1="27.876" y1="40.921" x2="48.764" y2="40.921"/><line fill="none" stroke="#000000" stroke-width="1.4" stroke-miterlimit="10" x1="27.876" y1="48.123" x2="48.764" y2="48.123"/><line fill="none" stroke="#000000" stroke-width="1.4" stroke-miterlimit="10" x1="27.876" y1="51.631" x2="48.764" y2="51.631"/><g><path d="M51.231,1.4c1.858,0,3.369,1.511,3.369,3.369v54.462c0,1.858-1.511,3.369-3.369,3.369H12.769     c-1.858,0-3.369-1.511-3.369-3.369V4.769c0-1.858,1.511-3.369,3.369-3.369H51.231 M51.231,0H12.769C10.135,0,8,2.135,8,4.769     v54.462C8,61.865,10.135,64,12.769,64h38.462C53.865,64,56,61.865,56,59.231V4.769C56,2.135,53.865,0,51.231,0L51.231,0z"/></g></g></g><g><path d="M22.251,16.857c2.059,0,3.728-1.669,3.728-3.728s-1.669-3.728-3.728-3.728s-3.728,1.669-3.728,3.728   S20.192,16.857,22.251,16.857z M22.251,10.801c1.284,0,2.328,1.044,2.328,2.328c0,1.284-1.044,2.328-2.328,2.328   c-1.284,0-2.328-1.044-2.328-2.328C19.923,11.846,20.967,10.801,22.251,10.801z"/><path d="M18.473,17.714c0,0-3.778,0.05-3.778,3.526s0,4.282,0,4.282s7.355,0,7.38,0L18.473,17.714z M16.094,21.24   c0-1.28,0.827-1.792,1.543-1.996l2.25,4.878h-3.793V21.24z"/><path d="M29.808,25.522c0,0,0-0.806,0-4.282s-3.778-3.526-3.778-3.526l-3.602,7.808H29.808z M26.867,19.24   c0.7,0.199,1.541,0.707,1.541,2v2.882h-3.793L26.867,19.24z"/><polygon points="22.251,18.096 20.003,18.096 22.251,23.073 24.499,18.096  "/><path d="M41.749,16.857c2.059,0,3.728-1.669,3.728-3.728s-1.669-3.728-3.728-3.728c-2.059,0-3.728,1.669-3.728,3.728   S39.69,16.857,41.749,16.857z M41.749,10.801c1.284,0,2.328,1.044,2.328,2.328c0,1.284-1.044,2.328-2.328,2.328   c-1.284,0-2.328-1.044-2.328-2.328C39.421,11.846,40.465,10.801,41.749,10.801z"/><path d="M37.971,17.714c0,0-3.778,0.05-3.778,3.526s0,4.282,0,4.282s7.355,0,7.38,0L37.971,17.714z M35.592,21.24   c0-1.28,0.827-1.792,1.543-1.996l2.25,4.878h-3.793V21.24z"/><path d="M45.527,17.714l-3.602,7.808h7.38c0,0,0-0.806,0-4.282S45.527,17.714,45.527,17.714z M47.906,24.122h-3.793l2.252-4.882   c0.7,0.199,1.54,0.707,1.54,2V24.122z"/><polygon points="39.501,18.096 41.749,23.073 43.997,18.096 41.749,18.096  "/><polygon points="18.396,40.564 16.492,38.712 15.236,40.074 18.543,43.29 24.32,36.27 22.926,35.059  "/><polygon points="18.396,51.274 16.492,49.422 15.236,50.784 18.543,54 24.32,46.98 22.926,45.769  "/><rect x="27.876" y="36.713" width="20.888" height="1.4"/><rect x="27.876" y="40.221" width="20.888" height="1.4"/><rect x="27.876" y="47.423" width="20.888" height="1.4"/><rect x="27.876" y="50.931" width="20.888" height="1.4"/><path d="M8,64h48V0H8V64z M9.4,1.4h45.2v61.2H9.4V1.4z"/></g><g display="none"><polygon display="inline" fill="#000000" stroke="#222020" stroke-miterlimit="10" points="22.926,35.058 18.396,40.564    16.492,38.712 15.237,40.074 18.543,43.289 24.32,36.269  "/><polygon display="inline" fill="#000000" stroke="#222020" stroke-miterlimit="10" points="22.926,45.768 18.396,51.273    16.492,49.421 15.237,50.784 18.543,53.999 24.32,46.979  "/><rect x="33.532" y="10.668" display="inline" fill="#000000" stroke="#222020" stroke-miterlimit="10" width="15.135" height="4.137"/><rect x="33.532" y="22.651" display="inline" fill="#000000" stroke="#222020" stroke-miterlimit="10" width="15.135" height="4.137"/><rect x="33.532" y="16.66" display="inline" fill="#000000" stroke="#222020" stroke-miterlimit="10" width="15.135" height="4.137"/><line display="inline" fill="#000000" stroke="#222020" stroke-miterlimit="10" x1="27.876" y1="37.413" x2="48.763" y2="37.413"/><line display="inline" fill="#000000" stroke="#222020" stroke-miterlimit="10" x1="27.876" y1="40.92" x2="48.763" y2="40.92"/><line display="inline" fill="#000000" stroke="#222020" stroke-miterlimit="10" x1="27.876" y1="48.122" x2="48.763" y2="48.122"/><line display="inline" fill="#000000" stroke="#222020" stroke-miterlimit="10" x1="27.876" y1="51.63" x2="48.763" y2="51.63"/><line display="inline" fill="#000000" stroke="#222020" stroke-miterlimit="10" x1="27.876" y1="37.42" x2="48.764" y2="37.42"/><line display="inline" fill="#000000" stroke="#222020" stroke-miterlimit="10" x1="27.876" y1="40.928" x2="48.764" y2="40.928"/><line display="inline" fill="#000000" stroke="#222020" stroke-miterlimit="10" x1="27.876" y1="48.13" x2="48.764" y2="48.13"/><line display="inline" fill="#000000" stroke="#222020" stroke-miterlimit="10" x1="27.876" y1="51.638" x2="48.764" y2="51.638"/><g display="inline"><polygon fill="#000000" stroke="#222020" stroke-miterlimit="10" points="48.535,63.75 8.189,63.75 8.189,0.25 55.811,0.25     55.811,56.474   "/><polyline fill="#000000" stroke="#222020" stroke-miterlimit="10" points="48.433,63.648 48.433,56.372 55.708,56.372   "/></g></g><g display="none"><g display="inline"><g><g><path fill="#000000" d="M22.192,27.76c-1.5,1.823-3,3.646-4.499,5.469c0.42-0.047,0.84-0.093,1.26-0.14      c-0.63-0.613-1.261-1.227-1.891-1.84c-0.317-0.309-0.984-0.16-1.26,0.14c-0.416,0.451-0.831,0.902-1.247,1.353      c-0.104,0.113-0.22,0.317-0.077,0.456c1.095,1.065,2.189,2.13,3.284,3.194c0.306,0.297,1.001,0.174,1.26-0.14      c1.913-2.325,3.825-4.649,5.738-6.974c0.092-0.111,0.232-0.322,0.077-0.456c-0.462-0.401-0.923-0.802-1.385-1.203      c-0.426-0.37-1.789,0.204-1.338,0.596c0.338,0.294,0.756,0.846,1.168,1.015c0.268,0.11,0.46-0.415,0.116-0.053      c-0.682,0.721-1.278,1.554-1.908,2.319c-1.217,1.48-2.435,2.959-3.652,4.439c0.42-0.047,0.84-0.093,1.26-0.14      c-0.822-0.8-1.644-1.6-2.466-2.399c-0.452-0.439-0.648-0.97-0.841-0.397c0.14-0.413,0.901-0.978,1.193-1.295      c-0.42,0.047-0.84,0.093-1.26,0.14c0.63,0.613,1.261,1.227,1.891,1.84c0.306,0.297,1.001,0.174,1.26-0.14      c1.5-1.823,3-3.646,4.499-5.469C23.935,27.395,22.547,27.329,22.192,27.76z"/></g></g><g><g><path fill="#000000" d="M27.227,30.54c6.915,0,13.83,0,20.745,0c0.294,0,1.632-0.566,0.947-0.566c-6.915,0-13.83,0-20.745,0      C27.879,29.974,26.541,30.54,27.227,30.54L27.227,30.54z"/></g></g><g><g><path fill="#000000" d="M27.415,34.141c6.915,0,13.83,0,20.745,0c0.53,0,1.543-0.798,0.57-0.798c-6.915,0-13.83,0-20.745,0      C27.455,33.342,26.442,34.141,27.415,34.141L27.415,34.141z"/></g></g><g><g><path fill="#000000" d="M27.407,30.632c6.915,0,13.83,0,20.746,0c0.489,0,1.556-0.734,0.587-0.734c-6.915,0-13.83,0-20.746,0      C27.505,29.897,26.437,30.632,27.407,30.632L27.407,30.632z"/></g></g><g><g><path fill="#000000" d="M27.403,34.105c6.915,0,13.83,0,20.746,0c0.473,0,1.561-0.71,0.594-0.71c-6.915,0-13.83,0-20.746,0      C27.524,33.395,26.436,34.105,27.403,34.105L27.403,34.105z"/></g></g></g><g display="inline"><g><g><path fill="#000000" d="M27.408,48.037c6.915,0,13.83,0,20.745,0c0.497,0,1.554-0.747,0.584-0.747c-6.915,0-13.83,0-20.745,0      C27.495,47.29,26.438,48.037,27.408,48.037L27.408,48.037z"/></g></g><g><g><path fill="#000000" d="M27.643,48.23c6.915,0,13.83,0,20.746,0c0.848,0,1.095-1.117,0.113-1.117c-6.915,0-13.83,0-20.746,0      C26.909,47.113,26.662,48.23,27.643,48.23L27.643,48.23z"/></g></g><g><g><g><path fill="#000000" d="M22.111,45.319c-1.5,1.823-3,3.646-4.499,5.469c0.449-0.091,0.897-0.182,1.346-0.273       c-0.63-0.613-1.261-1.227-1.891-1.84c-0.34-0.331-1.082-0.014-1.346,0.273c-0.416,0.451-0.831,0.902-1.247,1.353       c-0.069,0.075-0.077,0.212-0.002,0.285c1.095,1.065,2.189,2.13,3.284,3.194c0.329,0.32,1.098,0.029,1.346-0.273       c1.913-2.325,3.825-4.649,5.738-6.974c0.061-0.075,0.085-0.213,0.002-0.285c-0.462-0.401-0.923-0.802-1.385-1.203       c-0.371-0.323-1.721,0.233-1.348,0.557c0.353,0.307,0.911,0.627,1.168,1.015c0.234,0.354,0.254-0.345,0.041,0.119       c-0.372,0.81-1.347,1.637-1.908,2.319c-1.217,1.48-2.435,2.959-3.652,4.439c0.449-0.091,0.897-0.182,1.346-0.273       c-0.822-0.8-1.644-1.6-2.466-2.399c-0.278-0.27-0.705-0.908-0.766-0.568c0.063-0.348,0.957-1.039,1.193-1.295       c-0.449,0.091-0.897,0.182-1.346,0.273c0.63,0.613,1.261,1.227,1.891,1.84c0.329,0.32,1.098,0.029,1.346-0.273       c1.5-1.823,3-3.646,4.499-5.469C23.844,44.859,22.4,44.967,22.111,45.319z"/></g></g><g><g><path fill="#000000" d="M27.424,51.581c6.915,0,13.83,0,20.745,0c0.573,0,1.528-0.865,0.552-0.865c-6.915,0-13.83,0-20.745,0       C27.403,50.716,26.448,51.581,27.424,51.581L27.424,51.581z"/></g></g><g><g><path fill="#000000" d="M27.393,51.474c6.915,0,13.83,0,20.746,0c0.426,0,1.573-0.634,0.614-0.634c-6.915,0-13.83,0-20.746,0       C27.581,50.84,26.434,51.474,27.393,51.474L27.393,51.474z"/></g></g></g></g><g display="inline"><g><g><path fill="#000000" d="M22.192,10.351c-1.5,1.823-3,3.646-4.499,5.469c0.42-0.047,0.84-0.093,1.26-0.14      c-0.63-0.613-1.261-1.227-1.891-1.84c-0.317-0.309-0.984-0.16-1.26,0.14c-0.416,0.451-0.831,0.902-1.247,1.353      c-0.104,0.113-0.22,0.317-0.077,0.456c1.095,1.065,2.189,2.13,3.284,3.194c0.306,0.297,1.001,0.174,1.26-0.14      c1.913-2.325,3.825-4.649,5.738-6.974c0.092-0.111,0.232-0.322,0.077-0.456c-0.462-0.401-0.923-0.802-1.385-1.203      c-0.426-0.37-1.789,0.204-1.338,0.596c0.338,0.294,0.756,0.846,1.168,1.015c0.268,0.11,0.46-0.415,0.116-0.053      c-0.682,0.721-1.278,1.554-1.908,2.319c-1.217,1.48-2.435,2.959-3.652,4.439c0.42-0.047,0.84-0.093,1.26-0.14      c-0.822-0.8-1.644-1.6-2.466-2.399c-0.452-0.439-0.648-0.97-0.841-0.397c0.14-0.413,0.901-0.978,1.193-1.295      c-0.42,0.047-0.84,0.093-1.26,0.14c0.63,0.613,1.261,1.227,1.891,1.84c0.306,0.297,1.001,0.174,1.26-0.14      c1.5-1.823,3-3.646,4.499-5.469C23.935,9.986,22.547,9.92,22.192,10.351z"/></g></g><g><g><path fill="#000000" d="M27.227,13.131c6.915,0,13.83,0,20.745,0c0.294,0,1.632-0.566,0.947-0.566c-6.915,0-13.83,0-20.745,0      C27.879,12.565,26.541,13.131,27.227,13.131L27.227,13.131z"/></g></g><g><g><path fill="#000000" d="M27.415,16.732c6.915,0,13.83,0,20.745,0c0.53,0,1.543-0.798,0.57-0.798c-6.915,0-13.83,0-20.745,0      C27.455,15.934,26.442,16.732,27.415,16.732L27.415,16.732z"/></g></g><g><g><path fill="#000000" d="M27.407,13.223c6.915,0,13.83,0,20.746,0c0.489,0,1.556-0.734,0.587-0.734c-6.915,0-13.83,0-20.746,0      C27.505,12.489,26.437,13.223,27.407,13.223L27.407,13.223z"/></g></g><g><g><path fill="#000000" d="M27.403,16.696c6.915,0,13.83,0,20.746,0c0.473,0,1.561-0.71,0.594-0.71c-6.915,0-13.83,0-20.746,0      C27.524,15.986,26.436,16.696,27.403,16.696L27.403,16.696z"/></g></g></g><g display="inline"><g><g><path fill="#000000" d="M48.488,63.085c-7.007,0-14.014,0-21.021,0c-4.676,0-9.352,0-14.027,0c-1.312,0-2.625,0.019-3.937,0      c-1.223-0.018-0.742-0.026-0.628,0.197c-0.701-1.365,0-4.876,0-6.376c0-4.119,0-8.238,0-12.357c0-10.04,0-20.08,0-30.12      c0-3.609,0-7.217,0-10.826c0-0.71,0.229-1.927,0-2.606c-0.309-0.917-0.87-0.063-0.658-0.08c7.496-0.61,15.293,0,22.81,0      c5.001,0,10.003,0,15.004,0c2.353,0,6.343-0.794,8.593,0c1.043,0.368-0.192-0.818,0.093-0.013c0.257,0.723,0,1.964,0,2.726      c0,3.796,0,7.591,0,11.387c0,10.882,0,21.765,0,32.647c0,2.389,0.764,6.227,0,8.519c-0.653,1.959-5.222,5.336-7.089,7.203      c-0.616,0.616,0.795,0.702,1.182,0.315c2.546-2.546,6.783-5.177,7.363-8.723c0.918-5.609,0-12.154,0-17.827      c0-12.256,0-24.512,0-36.768c0-0.25-0.22-0.381-0.459-0.381C39.948,0,24.182,0,8.416,0C8.153,0,7.419,0.132,7.419,0.534      c0,21.028,0,42.056,0,63.085c0,0.25,0.22,0.381,0.459,0.381c13.357,0,26.715,0,40.072,0C48.555,64,49.465,63.085,48.488,63.085z      "/></g></g><g><g><path fill="#000000" d="M48.853,63.39c0-2.409,0-4.819,0-7.228c-0.265,0.199-0.53,0.398-0.795,0.597c2.409,0,4.817,0,7.226,0      c0.839,0,1.102-1.094,0.12-1.094c-2.409,0-4.817,0-7.226,0c-0.293,0-0.795,0.251-0.795,0.597c0,2.409,0,4.819,0,7.228      C47.382,64.266,48.853,64.065,48.853,63.39L48.853,63.39z"/></g></g></g></g><g display="none"><circle display="inline" fill="#000000" cx="32" cy="32" r="32"/><polygon display="inline" fill="#000000" points="8.75,0.75 55.513,0.75 55.513,56.087 47.479,63.513 8.75,63.513  "/><polygon display="inline" fill="#000000" points="48.344,56.156 48.375,60.6 11.405,60.6 11.405,3.396 52.6,3.396 52.6,56.156  "/><path display="inline" d="M54.6,1.4v54.687L48.087,62.6H9.4V1.4H54.6 M56,0H8v64h40.667L56,56.667V0L56,0z"/><polygon display="inline" points="48.879,63.513 47.479,63.513 47.479,55.479 55.513,55.479 55.513,56.879 48.879,56.879  "/><polygon display="inline" points="22.926,35.058 18.396,40.564 16.492,38.712 15.237,40.074 18.543,43.289 24.32,36.269    22.926,35.058  "/><polygon display="inline" points="22.926,45.768 18.396,51.273 16.492,49.421 15.237,50.784 18.543,53.999 24.32,46.979    22.926,45.768  "/><rect x="27.876" y="36.713" display="inline" width="20.888" height="1.4"/><rect x="27.876" y="40.221" display="inline" width="20.888" height="1.4"/><rect x="27.876" y="47.422" display="inline" width="20.888" height="1.4"/><rect x="27.876" y="50.93" display="inline" width="20.888" height="1.4"/><path display="inline" d="M47.266,10.85v1.337H34.932V10.85H47.266 M48.666,9.45H33.532v4.137h15.135V9.45L48.666,9.45z"/><path display="inline" d="M47.266,22.834v1.337H34.932v-1.337H47.266 M48.666,21.434H33.532v4.137h15.135V21.434L48.666,21.434z"/><path display="inline" d="M47.266,16.842v1.337H34.932v-1.337H47.266 M48.666,15.442H33.532v4.137h15.135V15.442L48.666,15.442z"/><path display="inline" d="M18.864,20.211l-1.54,4.665h-1.98l5.039-14.83h2.311l5.061,14.83h-2.047l-1.584-4.665H18.864z    M23.728,18.715l-1.452-4.269c-0.33-0.968-0.551-1.849-0.771-2.706h-0.044c-0.22,0.88-0.462,1.782-0.748,2.684l-1.452,4.291H23.728   z"/><rect x="27.876" y="36.721" display="inline" width="20.888" height="1.4"/><rect x="27.876" y="40.229" display="inline" width="20.888" height="1.4"/><rect x="27.876" y="47.43" display="inline" width="20.888" height="1.4"/><rect x="27.876" y="50.938" display="inline" width="20.888" height="1.4"/></g></svg>