<svg xmlns="http://www.w3.org/2000/svg" xmlns:xlink="http://www.w3.org/1999/xlink" version="1.1" x="0px" y="0px" viewBox="0 0 64 80" enable-background="new 0 0 64 64" xml:space="preserve"><g><path d="M35.667,19.002h-7.334c-0.734,0-1.332-0.599-1.332-1.334V16c0-1.653,1.346-2.998,3-2.998h4c1.654,0,3,1.345,3,2.998v1.668   C37.001,18.403,36.402,19.002,35.667,19.002z M29.001,17.002h6V16c0-0.551-0.448-0.998-1-0.998h-4c-0.552,0-1,0.447-1,0.998V17.002   z"/></g><g><path d="M42,50.998H21.999c-1.654,0-3-1.344-3-2.996V22.006c0-0.553,0.447-1,1-1h24c0.553,0,1,0.447,1,1v25.996   C44.999,49.654,43.653,50.998,42,50.998z M20.999,23.006v24.996c0,0.54,0.458,0.996,1,0.996H42c0.542,0,0.999-0.456,0.999-0.996   V23.006H20.999z"/></g><g><path d="M28.001,45.002c-0.553,0-1-0.447-1-1v-16c0-0.553,0.447-1,1-1s1,0.447,1,1v16C29.001,44.555,28.554,45.002,28.001,45.002z"/></g><g><path d="M35.998,45.002c-0.553,0-1-0.447-1-1v-16c0-0.553,0.447-1,1-1s1,0.447,1,1v16C36.998,44.555,36.551,45.002,35.998,45.002z"/></g><g><path d="M46.999,23.006H17.001c-0.553,0-1-0.447-1-1v-4.004c0-0.553,0.447-1,1-1h29.998c0.553,0,1,0.447,1,1v4.004   C47.999,22.559,47.552,23.006,46.999,23.006z M18.001,21.006h27.998v-2.004H18.001V21.006z"/></g></svg>