<svg xmlns="http://www.w3.org/2000/svg" xmlns:xlink="http://www.w3.org/1999/xlink" version="1.1" x="0px" y="0px" viewBox="0 0 64 80" enable-background="new 0 0 64 64" xml:space="preserve"><g display="none"><rect x="-28.081" y="-102.092" display="inline" fill="#000000" width="824.576" height="414.113"/></g><g display="none"><circle display="inline" fill="#000000" cx="31.995" cy="32.042" r="32"/><polyline display="inline" fill="#000000" points="50.696,51.212 50.696,11.099 16.718,11.099 16.718,56.403 45.505,56.403    45.505,56.403 50.696,51.212  "/><polygon display="inline" fill="#000000" points="48.995,49.509 48.995,9.37 14.995,9.37 14.995,54.703 43.8,54.703  "/><polygon display="inline" fill="#000000" points="25.572,33.534 22.364,37.434 21.015,36.122 20.126,37.087 22.468,39.365    26.56,34.392  "/><line display="inline" fill="#000000" stroke="#E0E0E0" stroke-miterlimit="10" x1="29.079" y1="35.207" x2="43.874" y2="35.207"/><line display="inline" fill="#000000" stroke="#E0E0E0" stroke-miterlimit="10" x1="29.079" y1="37.692" x2="43.874" y2="37.692"/><polygon display="inline" fill="#000000" points="25.572,24.635 22.364,28.535 21.015,27.223 20.126,28.188 22.468,30.466    26.56,25.493  "/><line display="inline" fill="#000000" stroke="#E0E0E0" stroke-miterlimit="10" x1="29.079" y1="26.308" x2="43.874" y2="26.308"/><line display="inline" fill="#000000" stroke="#E0E0E0" stroke-miterlimit="10" x1="29.079" y1="28.793" x2="43.874" y2="28.793"/><polygon display="inline" fill="#000000" points="25.572,15.736 22.364,19.636 21.015,18.324 20.126,19.289 22.468,21.567    26.56,16.594  "/><line display="inline" fill="#000000" stroke="#E0E0E0" stroke-miterlimit="10" x1="29.079" y1="17.409" x2="43.874" y2="17.409"/><line display="inline" fill="#000000" stroke="#E0E0E0" stroke-miterlimit="10" x1="29.079" y1="19.894" x2="43.874" y2="19.894"/><polygon display="inline" fill="#000000" points="25.572,42.433 22.364,46.333 21.015,45.021 20.126,45.986 22.468,48.264    26.56,43.291  "/><line display="inline" fill="#000000" stroke="#E0E0E0" stroke-miterlimit="10" x1="29.079" y1="44.106" x2="43.874" y2="44.106"/><line display="inline" fill="#000000" stroke="#E0E0E0" stroke-miterlimit="10" x1="29.079" y1="46.591" x2="43.874" y2="46.591"/><polygon display="inline" fill="#000000" points="43.8,54.703 43.8,49.509 48.995,49.509  "/></g><g display="none"><circle display="inline" fill="#000000" cx="31.995" cy="32.042" r="32"/><polyline display="inline" points="50.696,51.212 50.696,11.099 16.718,11.099 16.718,56.403 45.505,56.403 45.505,56.403    50.696,51.212  "/><polygon display="inline" fill="#000000" points="48.995,49.509 48.995,9.37 14.995,9.37 14.995,54.703 43.8,54.703  "/><polygon display="inline" points="25.572,33.534 22.364,37.434 21.015,36.122 20.126,37.087 22.468,39.365 26.56,34.392  "/><line display="inline" fill="#000000" stroke="#E0E0E0" stroke-miterlimit="10" x1="29.079" y1="35.207" x2="43.874" y2="35.207"/><line display="inline" fill="#000000" stroke="#E0E0E0" stroke-miterlimit="10" x1="29.079" y1="37.692" x2="43.874" y2="37.692"/><polygon display="inline" fill="#000000" points="25.572,24.635 22.364,28.535 21.015,27.223 20.126,28.188 22.468,30.466    26.56,25.493  "/><line display="inline" fill="#000000" stroke="#E0E0E0" stroke-miterlimit="10" x1="29.079" y1="26.308" x2="43.874" y2="26.308"/><line display="inline" fill="#000000" stroke="#E0E0E0" stroke-miterlimit="10" x1="29.079" y1="28.793" x2="43.874" y2="28.793"/><polygon display="inline" points="25.572,15.736 22.364,19.636 21.015,18.324 20.126,19.289 22.468,21.567 26.56,16.594  "/><line display="inline" fill="#000000" stroke="#E0E0E0" stroke-miterlimit="10" x1="29.079" y1="17.409" x2="43.874" y2="17.409"/><line display="inline" fill="#000000" stroke="#E0E0E0" stroke-miterlimit="10" x1="29.079" y1="19.894" x2="43.874" y2="19.894"/><polygon display="inline" fill="#000000" points="25.572,42.433 22.364,46.333 21.015,45.021 20.126,45.986 22.468,48.264    26.56,43.291  "/><line display="inline" fill="#000000" stroke="#E0E0E0" stroke-miterlimit="10" x1="29.079" y1="44.106" x2="43.874" y2="44.106"/><line display="inline" fill="#000000" stroke="#E0E0E0" stroke-miterlimit="10" x1="29.079" y1="46.591" x2="43.874" y2="46.591"/><polygon display="inline" fill="#000000" points="43.8,54.703 43.8,49.509 48.995,49.509  "/></g><g display="none"><polygon display="inline" fill="#000000" points="44.371,56.682 44.371,0.016 -3.629,0.016 -3.629,64.016 37.038,64.016  "/><polygon display="inline" fill="#000000" points="11.304,34.13 6.774,39.636 4.87,37.784 3.615,39.146 6.921,42.361 12.698,35.341     "/><rect x="16.255" y="35.786" display="inline" fill="#000000" width="20.887" height="1.412"/><rect x="16.255" y="39.294" display="inline" fill="#000000" width="20.887" height="1.412"/><polygon display="inline" fill="#000000" points="11.304,21.567 6.774,27.072 4.87,25.22 3.615,26.582 6.921,29.798 12.698,22.778     "/><rect x="16.255" y="23.222" display="inline" fill="#000000" width="20.887" height="1.412"/><rect x="16.255" y="26.731" display="inline" fill="#000000" width="20.887" height="1.412"/><polygon display="inline" fill="#000000" points="11.304,9.004 6.774,14.509 4.87,12.657 3.615,14.019 6.921,17.235 12.698,10.215     "/><rect x="16.255" y="10.66" display="inline" fill="#000000" width="20.887" height="1.412"/><rect x="16.255" y="14.167" display="inline" fill="#000000" width="20.887" height="1.412"/><polygon display="inline" fill="#000000" points="11.304,46.694 6.774,52.199 4.87,50.347 3.615,51.709 6.921,54.925    12.698,47.905  "/><rect x="16.255" y="48.349" display="inline" fill="#000000" width="20.887" height="1.412"/><rect x="16.255" y="51.858" display="inline" fill="#000000" width="20.887" height="1.412"/><polygon display="inline" fill="#000000" points="37.038,64.016 37.038,56.682 44.371,56.682  "/></g><g display="none"><g display="inline"><polygon points="22.933,33.57 18.403,39.075 16.499,37.223 15.244,38.585 18.55,41.8 24.327,34.78 22.933,33.57   "/></g><g display="inline"><polygon points="22.933,21.176 18.403,26.682 16.499,24.83 15.244,26.192 18.55,29.407 24.327,22.387 22.933,21.176   "/></g><g display="inline"><polygon points="22.933,8.988 18.403,14.493 16.499,12.641 15.244,14.004 18.55,17.219 24.327,10.199 22.933,8.988   "/></g><g display="inline"><polygon points="22.933,45.716 18.403,51.221 16.499,49.369 15.244,50.731 18.55,53.946 24.327,46.926 22.933,45.716   "/></g><line display="inline" fill="none" stroke="#000000" stroke-width="1.4" stroke-miterlimit="10" x1="27.884" y1="35.9" x2="48.771" y2="35.9"/><line display="inline" fill="none" stroke="#000000" stroke-width="1.4" stroke-miterlimit="10" x1="27.884" y1="39.408" x2="48.771" y2="39.408"/><line display="inline" fill="none" stroke="#000000" stroke-width="1.4" stroke-miterlimit="10" x1="27.884" y1="23.625" x2="48.771" y2="23.625"/><line display="inline" fill="none" stroke="#000000" stroke-width="1.4" stroke-miterlimit="10" x1="27.884" y1="27.133" x2="48.771" y2="27.133"/><line display="inline" fill="none" stroke="#000000" stroke-width="1.4" stroke-miterlimit="10" x1="27.884" y1="11.35" x2="48.771" y2="11.35"/><line display="inline" fill="none" stroke="#000000" stroke-width="1.4" stroke-miterlimit="10" x1="27.884" y1="14.857" x2="48.771" y2="14.857"/><line display="inline" fill="none" stroke="#000000" stroke-width="1.4" stroke-miterlimit="10" x1="27.884" y1="48.175" x2="48.771" y2="48.175"/><line display="inline" fill="none" stroke="#000000" stroke-width="1.4" stroke-miterlimit="10" x1="27.884" y1="51.683" x2="48.771" y2="51.683"/><g display="inline"><path d="M54.6,1.4v54.687L48.087,62.6H9.4V1.4H54.6 M56,0H8v64h40.667L56,56.667V0L56,0z"/></g><polyline display="inline" fill="none" stroke="#000000" stroke-width="1.4" stroke-miterlimit="10" points="48.174,63.512    48.174,56.179 55.507,56.179  "/></g><g display="none"><g display="inline"><polygon points="22.933,33.57 18.403,39.075 16.499,37.223 15.244,38.585 18.55,41.8 24.327,34.78 22.933,33.57   "/></g><g display="inline"><polygon points="22.933,21.176 18.403,26.682 16.499,24.83 15.244,26.192 18.55,29.407 24.327,22.387 22.933,21.176   "/></g><g display="inline"><polygon points="22.933,8.988 18.403,14.493 16.499,12.641 15.244,14.004 18.55,17.219 24.327,10.199 22.933,8.988   "/></g><g display="inline"><polygon points="22.933,45.716 18.403,51.221 16.499,49.369 15.244,50.731 18.55,53.946 24.327,46.926 22.933,45.716   "/></g><line display="inline" fill="none" stroke="#000000" stroke-width="1.4" stroke-miterlimit="10" x1="27.884" y1="35.9" x2="48.771" y2="35.9"/><line display="inline" fill="none" stroke="#000000" stroke-width="1.4" stroke-miterlimit="10" x1="27.884" y1="39.408" x2="48.771" y2="39.408"/><line display="inline" fill="none" stroke="#000000" stroke-width="1.4" stroke-miterlimit="10" x1="27.884" y1="23.625" x2="48.771" y2="23.625"/><line display="inline" fill="none" stroke="#000000" stroke-width="1.4" stroke-miterlimit="10" x1="27.884" y1="27.133" x2="48.771" y2="27.133"/><line display="inline" fill="none" stroke="#000000" stroke-width="1.4" stroke-miterlimit="10" x1="27.884" y1="11.35" x2="48.771" y2="11.35"/><line display="inline" fill="none" stroke="#000000" stroke-width="1.4" stroke-miterlimit="10" x1="27.884" y1="14.857" x2="48.771" y2="14.857"/><line display="inline" fill="none" stroke="#000000" stroke-width="1.4" stroke-miterlimit="10" x1="27.884" y1="48.175" x2="48.771" y2="48.175"/><line display="inline" fill="none" stroke="#000000" stroke-width="1.4" stroke-miterlimit="10" x1="27.884" y1="51.683" x2="48.771" y2="51.683"/><g display="inline"><path d="M51.231,1.4c1.858,0,3.369,1.511,3.369,3.369v54.462c0,1.858-1.511,3.369-3.369,3.369H12.769    c-1.858,0-3.369-1.511-3.369-3.369V4.769c0-1.858,1.511-3.369,3.369-3.369H51.231 M51.231,0H12.769C10.135,0,8,2.135,8,4.769    v54.462C8,61.865,10.135,64,12.769,64h38.462C53.865,64,56,61.865,56,59.231V4.769C56,2.135,53.865,0,51.231,0L51.231,0z"/></g></g><g><polygon points="18.403,39.075 16.499,37.223 15.244,38.585 18.55,41.8 24.327,34.78 22.933,33.57  "/><polygon points="18.403,26.682 16.499,24.83 15.244,26.192 18.55,29.407 24.327,22.387 22.933,21.176  "/><polygon points="18.403,14.493 16.499,12.641 15.244,14.003 18.55,17.219 24.327,10.199 22.933,8.988  "/><polygon points="18.403,51.221 16.499,49.369 15.244,50.731 18.55,53.946 24.327,46.926 22.933,45.716  "/><rect x="27.883" y="35.2" width="20.888" height="1.4"/><rect x="27.883" y="38.708" width="20.888" height="1.4"/><rect x="27.883" y="22.925" width="20.888" height="1.4"/><rect x="27.883" y="26.433" width="20.888" height="1.4"/><rect x="27.883" y="10.65" width="20.888" height="1.4"/><rect x="27.883" y="14.158" width="20.888" height="1.4"/><rect x="27.883" y="47.475" width="20.888" height="1.4"/><rect x="27.883" y="50.983" width="20.888" height="1.4"/><path d="M8,64h48V0H8V64z M9.4,1.4h45.2v61.2H9.4V1.4z"/></g><g display="none"><polygon display="inline" fill="#000000" stroke="#222020" stroke-miterlimit="10" points="22.933,33.57 18.403,39.075 16.499,37.223    15.244,38.585 18.55,41.8 24.327,34.78  "/><polygon display="inline" fill="#000000" stroke="#222020" stroke-miterlimit="10" points="22.933,21.176 18.403,26.682 16.499,24.83    15.244,26.192 18.55,29.407 24.327,22.387  "/><polygon display="inline" fill="#000000" stroke="#222020" stroke-miterlimit="10" points="22.933,8.988 18.403,14.493 16.499,12.641    15.244,14.004 18.55,17.219 24.327,10.199  "/><polygon display="inline" fill="#000000" stroke="#222020" stroke-miterlimit="10" points="22.933,45.716 18.403,51.221    16.499,49.369 15.244,50.731 18.55,53.946 24.327,46.926  "/><line display="inline" fill="#000000" stroke="#222020" stroke-miterlimit="10" x1="27.884" y1="35.9" x2="48.771" y2="35.9"/><line display="inline" fill="#000000" stroke="#222020" stroke-miterlimit="10" x1="27.884" y1="39.408" x2="48.771" y2="39.408"/><line display="inline" fill="#000000" stroke="#222020" stroke-miterlimit="10" x1="27.884" y1="23.625" x2="48.771" y2="23.625"/><line display="inline" fill="#000000" stroke="#222020" stroke-miterlimit="10" x1="27.884" y1="27.133" x2="48.771" y2="27.133"/><line display="inline" fill="#000000" stroke="#222020" stroke-miterlimit="10" x1="27.884" y1="11.35" x2="48.771" y2="11.35"/><line display="inline" fill="#000000" stroke="#222020" stroke-miterlimit="10" x1="27.884" y1="14.857" x2="48.771" y2="14.857"/><line display="inline" fill="#000000" stroke="#222020" stroke-miterlimit="10" x1="27.884" y1="48.175" x2="48.771" y2="48.175"/><line display="inline" fill="#000000" stroke="#222020" stroke-miterlimit="10" x1="27.884" y1="51.683" x2="48.771" y2="51.683"/><g display="inline"><polygon fill="#000000" stroke="#222020" stroke-miterlimit="10" points="48.535,63.75 8.189,63.75 8.189,0.25 55.811,0.25     55.811,56.474   "/><polyline fill="#000000" stroke="#222020" stroke-miterlimit="10" points="48.433,63.648 48.433,56.372 55.708,56.372   "/></g></g><g display="none"><g display="inline"><g><g><path fill="#000000" d="M22.225,33.377c-1.506,1.83-3.012,3.661-4.518,5.491c0.422-0.04,0.844-0.081,1.265-0.121      c-0.633-0.616-1.266-1.231-1.899-1.847c-0.338-0.329-0.964-0.206-1.265,0.121c-0.417,0.453-0.835,0.906-1.252,1.359      c-0.111,0.12-0.211,0.358-0.066,0.498c1.099,1.069,2.198,2.138,3.297,3.207c0.325,0.317,0.983,0.222,1.265-0.121      c1.921-2.334,3.841-4.668,5.762-7.002c0.176-0.214,0.168-0.411-0.036-0.589c-0.463-0.403-0.927-0.805-1.39-1.208      c-0.448-0.389-1.736,0.271-1.126,0.8c0.463,0.403,0.927,0.805,1.39,1.208c-0.012-0.196-0.024-0.393-0.036-0.589      c-1.921,2.334-3.841,4.668-5.762,7.002c0.422-0.04,0.844-0.081,1.265-0.121c-0.826-0.803-1.651-1.606-2.477-2.409      c-0.201-0.196-0.395-0.436-0.62-0.603c-0.304-0.226,0.012-0.251-0.213,0.245c0.203-0.449,0.867-0.941,1.198-1.3      c-0.422,0.04-0.844,0.081-1.265,0.121c0.633,0.616,1.266,1.231,1.899,1.847c0.325,0.317,0.983,0.222,1.265-0.121      c1.506-1.83,3.012-3.661,4.518-5.491C23.998,33.057,22.616,32.902,22.225,33.377z"/></g></g><g><g><path fill="#000000" d="M22.149,21.184c-1.506,1.83-3.012,3.661-4.518,5.491c0.449-0.089,0.899-0.177,1.348-0.266      c-0.633-0.616-1.266-1.231-1.899-1.847c-0.294-0.286-1.004-0.112-1.255,0.16c-0.417,0.453-0.835,0.906-1.252,1.359      c-0.097,0.105-0.229,0.276-0.089,0.412c1.099,1.069,2.198,2.138,3.297,3.207c0.349,0.339,1.085,0.053,1.348-0.266      c1.921-2.334,3.841-4.668,5.762-7.002c0.063-0.077,0.079-0.234-0.004-0.306c-0.463-0.403-0.927-0.805-1.39-1.208      c-0.392-0.34-1.748,0.221-1.344,0.572c0.359,0.312,0.903,0.629,1.173,1.019c0.24,0.347,0.261-0.365,0.035,0.099      c-0.398,0.819-1.342,1.631-1.916,2.329c-1.222,1.486-2.445,2.971-3.667,4.457c0.449-0.089,0.899-0.177,1.348-0.266      c-0.826-0.803-1.651-1.606-2.477-2.409c-0.34-0.331-0.727-1.028-0.856-0.444c0.082-0.369,0.946-1.027,1.198-1.3      c-0.418,0.053-0.837,0.107-1.255,0.16c0.633,0.616,1.266,1.231,1.899,1.847c0.349,0.339,1.085,0.053,1.348-0.266      c1.506-1.83,3.012-3.661,4.518-5.491C23.91,20.727,22.455,20.811,22.149,21.184z"/></g></g><g><g><path fill="#000000" d="M22.156,9.053c-1.506,1.83-3.012,3.661-4.518,5.491c0.448-0.093,0.896-0.186,1.345-0.279      c-0.633-0.616-1.266-1.231-1.899-1.847c-0.321-0.313-1.094,0.007-1.345,0.279c-0.417,0.453-0.835,0.906-1.252,1.359      c-0.068,0.073-0.082,0.193-0.007,0.266c1.099,1.069,2.198,2.138,3.297,3.207c0.311,0.302,1.11,0.007,1.345-0.279      c1.921-2.334,3.841-4.668,5.762-7.002c0.06-0.073,0.089-0.194,0.007-0.266c-0.463-0.403-0.927-0.805-1.39-1.208      c-0.353-0.307-1.695,0.246-1.352,0.544c0.349,0.303,0.927,0.63,1.173,1.019c0.23,0.363,0.248-0.326,0.046,0.14      c-0.349,0.805-1.364,1.658-1.916,2.329c-1.222,1.486-2.445,2.971-3.667,4.457c0.448-0.093,0.896-0.186,1.345-0.279      c-0.826-0.803-1.651-1.606-2.477-2.409c-0.243-0.236-0.728-0.908-0.774-0.591c0.048-0.334,0.973-1.056,1.198-1.3      c-0.448,0.093-0.896,0.186-1.345,0.279c0.633,0.616,1.266,1.231,1.899,1.847c0.31,0.302,1.11,0.007,1.345-0.279      c1.506-1.83,3.012-3.661,4.518-5.491C23.863,8.591,22.43,8.72,22.156,9.053z"/></g></g><g><g><path fill="#000000" d="M22.167,45.727c-1.506,1.83-3.012,3.661-4.518,5.491c0.446-0.099,0.893-0.198,1.339-0.297      c-0.633-0.616-1.266-1.231-1.899-1.847c-0.259-0.252-1.132,0.073-1.339,0.297c-0.417,0.453-0.835,0.906-1.252,1.359      c-0.062,0.068-0.096,0.134-0.023,0.205c1.099,1.069,2.198,2.138,3.297,3.207c0.25,0.243,1.146-0.063,1.339-0.297      c1.921-2.334,3.841-4.668,5.762-7.002c0.054-0.066,0.103-0.135,0.023-0.205c-0.463-0.403-0.927-0.805-1.39-1.208      c-0.301-0.262-1.604,0.292-1.363,0.502c0.334,0.29,0.959,0.635,1.173,1.019c0.216,0.387,0.23-0.265,0.063,0.201      c-0.278,0.774-1.401,1.703-1.916,2.329c-1.222,1.486-2.445,2.971-3.667,4.457c0.446-0.099,0.893-0.198,1.339-0.297      c-0.826-0.803-1.651-1.606-2.477-2.409c-0.156-0.152-0.78-0.861-0.79-0.652c0.014-0.288,1.005-1.091,1.198-1.3      c-0.446,0.099-0.893,0.198-1.339,0.297c0.633,0.616,1.266,1.231,1.899,1.847c0.25,0.243,1.146-0.063,1.339-0.297      c1.506-1.83,3.012-3.661,4.518-5.491C23.783,45.269,22.398,45.445,22.167,45.727z"/></g></g><g><g><path fill="#000000" d="M27.296,36.201c6.944,0,13.888,0,20.832,0c0.328,0,1.646-0.622,0.931-0.622c-6.944,0-13.888,0-20.832,0      C27.9,35.579,26.582,36.201,27.296,36.201L27.296,36.201z"/></g></g><g><g><path fill="#000000" d="M27.693,39.902c6.944,0,13.888,0,20.832,0c0.814,0,1.124-1.025,0.138-1.025c-6.944,0-13.888,0-20.832,0      C27.017,38.876,26.708,39.902,27.693,39.902L27.693,39.902z"/></g></g><g><g><path fill="#000000" d="M27.69,24.149c6.944,0,13.888,0,20.832,0c0.806,0,1.13-1.005,0.144-1.005c-6.944,0-13.888,0-20.832,0      C27.028,23.144,26.704,24.149,27.69,24.149L27.69,24.149z"/></g></g><g><g><path fill="#000000" d="M27.499,27.625c6.944,0,13.888,0,20.832,0c0.635,0,1.503-0.961,0.526-0.961c-6.944,0-13.888,0-20.832,0      C27.391,26.665,26.523,27.625,27.499,27.625L27.499,27.625z"/></g></g><g><g><path fill="#000000" d="M27.467,11.763c6.944,0,13.888,0,20.832,0c0.48,0,1.559-0.721,0.591-0.721c-6.944,0-13.888,0-20.832,0      C27.577,11.042,26.499,11.763,27.467,11.763L27.467,11.763z"/></g></g><g><g><path fill="#000000" d="M27.495,15.366c6.944,0,13.888,0,20.832,0c0.614,0,1.511-0.929,0.535-0.929c-6.944,0-13.888,0-20.832,0      C27.415,14.437,26.518,15.366,27.495,15.366L27.495,15.366z"/></g></g><g><g><path fill="#000000" d="M27.706,48.693c6.944,0,13.888,0,20.832,0c0.848,0,1.094-1.118,0.113-1.118c-6.944,0-13.888,0-20.832,0      C26.971,47.575,26.724,48.693,27.706,48.693L27.706,48.693z"/></g></g><g><g><path fill="#000000" d="M27.455,51.949c6.944,0,13.888,0,20.832,0c0.425,0,1.573-0.632,0.615-0.632c-6.944,0-13.888,0-20.832,0      C27.645,51.317,26.496,51.949,27.455,51.949L27.455,51.949z"/></g></g><g><g><g><path fill="#000000" d="M48.662,63.338c-6.706,0-13.413,0-20.119,0c-4.547,0-9.094,0-13.642,0c-1.525,0-3.059-0.045-4.583,0       c-0.943,0.028-1.746-0.296-1.474,0.116c-0.524-0.793,0-3.759,0-4.671c0-3.619,0-7.238,0-10.857c0-9.709,0-19.418,0-29.127       c0-6.221,0-12.442,0-18.662C8.502,0.312,8.16,0.487,7.817,0.662c7.093,0,14.185,0,21.278,0c5.208,0,10.416,0,15.624,0       c2.6,0,7.496-0.983,9.938,0c1.085,0.437-0.091-0.519,0.234,0.224c0.297,0.679,0,2.197,0,2.925c0,3.948,0,7.896,0,11.843       c0,10.285,0,20.57,0,30.855c0,2.75,0.851,7.089,0,9.735c-0.773,2.401-5.218,5.479-7.194,7.456       c-0.343,0.343,1.05,0.211,1.324-0.063c2.556-2.557,6.945-5.165,7.319-8.817c0.595-5.822,0-12.023,0-17.871       c0-12.271,0-24.542,0-36.813C56.34-0.013,55.993,0,55.918,0C40.087,0,24.255,0,8.423,0C8.154,0,7.396,0.155,7.396,0.525       c0,21.113,0,42.225,0,63.338c0,0.15,0.347,0.137,0.421,0.137c13.413,0,26.826,0,40.239,0       C48.499,64,49.625,63.338,48.662,63.338z"/></g></g><g><g><path fill="#000000" d="M48.982,63.373c0-2.419,0-4.838,0-7.257c-0.4,0.158-0.799,0.315-1.199,0.473c2.419,0,4.837,0,7.256,0       c0.29,0,1.631-0.558,0.948-0.558c-2.419,0-4.837,0-7.256,0c-0.241,0-1.199,0.121-1.199,0.473c0,2.419,0,4.838,0,7.257       C47.533,63.954,48.982,63.762,48.982,63.373L48.982,63.373z"/></g></g></g></g></g><g display="none"><circle display="inline" fill="#000000" cx="32" cy="32" r="32"/><polygon display="inline" fill="#000000" points="8.75,0.75 55.513,0.75 55.513,56.087 47.479,63.513 8.75,63.513  "/><polygon display="inline" fill="#000000" points="48.344,56.156 48.375,60.6 11.405,60.6 11.405,3.396 52.6,3.396 52.6,56.156  "/><path display="inline" d="M54.6,1.4v54.687L48.087,62.6H9.4V1.4H54.6 M56,0H8v64h40.667L56,56.667V0L56,0z"/><polygon display="inline" points="48.879,63.513 47.479,63.513 47.479,55.479 55.513,55.479 55.513,56.879 48.879,56.879  "/><polygon display="inline" points="22.933,33.57 18.403,39.075 16.499,37.223 15.244,38.585 18.55,41.8 24.327,34.78 22.933,33.57     "/><polygon display="inline" points="22.933,21.176 18.403,26.682 16.499,24.83 15.244,26.192 18.55,29.407 24.327,22.387    22.933,21.176  "/><polygon display="inline" points="22.933,8.988 18.403,14.493 16.499,12.641 15.244,14.004 18.55,17.219 24.327,10.199    22.933,8.988  "/><polygon display="inline" points="22.933,45.716 18.403,51.221 16.499,49.369 15.244,50.731 18.55,53.946 24.327,46.926    22.933,45.716  "/><rect x="27.883" y="35.2" display="inline" width="20.888" height="1.4"/><rect x="27.883" y="38.708" display="inline" width="20.888" height="1.4"/><rect x="27.883" y="22.925" display="inline" width="20.888" height="1.4"/><rect x="27.883" y="26.433" display="inline" width="20.888" height="1.4"/><rect x="27.883" y="10.65" display="inline" width="20.888" height="1.4"/><rect x="27.883" y="14.158" display="inline" width="20.888" height="1.4"/><rect x="27.883" y="47.475" display="inline" width="20.888" height="1.4"/><rect x="27.883" y="50.983" display="inline" width="20.888" height="1.4"/></g></svg>